<svg xmlns="http://www.w3.org/2000/svg" xmlns:xlink="http://www.w3.org/1999/xlink" width="20.404" height="20.404" viewBox="0 0 20.404 20.404"><defs><style>.a{fill:url(#a);}.b{fill:#fff;}</style><linearGradient id="a" x1="0.5" x2="-0.031" y2="1" gradientUnits="objectBoundingBox"><stop offset="0" stop-color="#2fd86d"/><stop offset="1" stop-color="#11dbbf"/></linearGradient></defs><g transform="translate(-31.298 -591.298)"><rect class="a" width="20.404" height="20.404" rx="5" transform="translate(31.298 591.298)"/><path class="b" d="M12.928,10.717a.666.666,0,0,0-.678,0l-1.06.632a.664.664,0,0,1-.752-.045A17.254,17.254,0,0,1,8.928,9.992,17.254,17.254,0,0,1,7.613,8.483a.664.664,0,0,1-.045-.752L8.2,6.671a.668.668,0,0,0,0-.681L6.646,3.332a.671.671,0,0,0-.74-.313,2.2,2.2,0,0,0-1.03.619c-1.2,1.2-1.836,3.222,2.674,7.733s6.533,3.874,7.733,2.674a2.208,2.208,0,0,0,.619-1.032.668.668,0,0,0-.311-.737Z" transform="translate(31.539 592.54)"/></g></svg>