<svg xmlns="http://www.w3.org/2000/svg" xmlns:xlink="http://www.w3.org/1999/xlink" width="22.854" height="22.853" viewBox="0 0 22.854 22.853"><defs><style>.a{fill:none;}.b{fill:url(#a);}</style><linearGradient id="a" x1="0.5" x2="0.5" y2="1" gradientUnits="objectBoundingBox"><stop offset="0" stop-color="#c694f9"/><stop offset="1" stop-color="#ab64f4"/></linearGradient></defs><path class="a" d="M0,22.853V0H22.853V22.853Z"/><g transform="translate(4.571 1.524)"><path class="b" d="M38.216,10.453a4.583,4.583,0,0,0-4.571,4.571v2.517a6.856,6.856,0,1,0,9.141,0V15.024a4.554,4.554,0,0,0-4.3-4.516.762.762,0,0,0-.271-.055Zm0,1.524a3.036,3.036,0,0,1,3.047,3.047v1.482a6.807,6.807,0,0,0-6.094,0V15.024A3.036,3.036,0,0,1,38.216,11.977Zm0,9.141a1.519,1.519,0,0,1,.762,2.836v.973a.762.762,0,1,1-1.524,0v-.973a1.519,1.519,0,0,1,.762-2.836Z" transform="translate(-31.36 -10.453)"/></g></svg>