<svg xmlns="http://www.w3.org/2000/svg" xmlns:xlink="http://www.w3.org/1999/xlink" width="16" height="16" viewBox="0 0 16 16"><defs><style>.a{fill:url(#a);}.b{fill:#fff;}</style><linearGradient id="a" x1="0.971" y1="-0.096" x2="-0.022" y2="1" gradientUnits="objectBoundingBox"><stop offset="0" stop-color="#0ed4b9"/><stop offset="1" stop-color="#64d2f4"/></linearGradient></defs><g transform="translate(-1094 -33)"><rect class="a" width="16" height="16" rx="4" transform="translate(1094 33)"/><path class="b" d="M10.627,7.735a4.334,4.334,0,1,0-7.64,3.349.679.679,0,0,0,.523.25H9.161a.645.645,0,0,0,.5-.222A4.326,4.326,0,0,0,10.627,7.735ZM7.712,5.28a.333.333,0,1,1,.122.455A.333.333,0,0,1,7.712,5.28ZM6.333,4.667A.333.333,0,1,1,6,5,.333.333,0,0,1,6.333,4.667ZM2.667,8.334A.333.333,0,1,1,3,8.667.333.333,0,0,1,2.667,8.334Zm.947,1.955a.333.333,0,1,1,.122-.455A.333.333,0,0,1,3.613,10.289Zm.122-3.455a.333.333,0,1,1-.122-.455A.333.333,0,0,1,3.735,6.834Zm1.1-1.1a.333.333,0,1,1,.122-.455A.333.333,0,0,1,4.833,5.736Zm.923,2.931A.667.667,0,0,1,6,7.756c.2-.116,1.731-.7,2.842-1.111a.211.211,0,0,1,.208.36C8.135,7.76,6.867,8.8,6.667,8.911A.667.667,0,0,1,5.756,8.667Zm3.753,1.5a.333.333,0,1,1-.122-.455A.333.333,0,0,1,9.509,10.167Zm.158-1.5A.333.333,0,1,1,10,8.334.333.333,0,0,1,9.667,8.667Z" transform="translate(1095.806 32.682)"/></g></svg>