<svg xmlns="http://www.w3.org/2000/svg" xmlns:xlink="http://www.w3.org/1999/xlink" width="22.854" height="22.853" viewBox="0 0 22.854 22.853"><defs><style>.a{fill:none;}.b{fill:url(#a);}</style><linearGradient id="a" x1="0.5" x2="0.5" y2="1" gradientUnits="objectBoundingBox"><stop offset="0" stop-color="#ffcb52"/><stop offset="0.486" stop-color="#ffa62d"/><stop offset="0.994" stop-color="#ff7b02"/></linearGradient></defs><path class="a" d="M0,22.853V0H22.853V22.853Z"/><g transform="translate(5.332 4.571)"><path class="b" d="M27.41,12.453a1.276,1.276,0,0,0-1.277,1.277V25.222A1.276,1.276,0,0,0,27.41,26.5H37.415l-3.582-3.581a1.281,1.281,0,0,1-.358-.7l-.3-1.9a1.276,1.276,0,0,1,1.463-1.461l1.9.3a1.277,1.277,0,0,1,.7.358L38.9,21.182v-3.94a.638.638,0,0,0-.187-.451l-4.15-4.15a.638.638,0,0,0-.451-.187Zm6.384,1.216,3.892,3.892H34.433a.639.639,0,0,1-.638-.638Zm.638,6.445.3,1.9,4.193,4.192,1.6-1.6-4.193-4.192Zm7,5.4-1.6,1.6.335.335a1.129,1.129,0,0,0,1.6-1.6Z" transform="translate(-26.133 -12.453)"/></g></svg>