<svg xmlns="http://www.w3.org/2000/svg" width="25" height="25" viewBox="0 0 25 25"><defs><style>.a{fill:none;}.b{fill:#494d51;}</style></defs><path class="a" d="M0,25V0H25V25Z"/><g transform="translate(2.5 2.5)"><path class="b" d="M25.68,15.68a1.667,1.667,0,0,0-.334.036l0,0-8.307,1.662,0,0a1.667,1.667,0,0,0-1.356,1.636V32.347a1.667,1.667,0,0,0,1.357,1.637l8.307,1.662a1.666,1.666,0,0,0,2-1.632V17.347A1.667,1.667,0,0,0,25.68,15.68Zm3.333,1.667v2.5H30.68v1.667H29.013V23.18H30.68v1.667H29.013v1.667H30.68V28.18H29.013v1.667H30.68v1.667H29.013v2.5h5a1.666,1.666,0,0,0,1.667-1.667V19.013a1.666,1.666,0,0,0-1.667-1.667Zm3.333,2.5h.833a.833.833,0,1,1,0,1.667h-.833ZM18.335,21.513h2l1.037,2.492a4.892,4.892,0,0,1,.216.706h.028a7.429,7.429,0,0,1,.225-.726L23,21.513h1.823l-2.178,4.129,2.243,4.2H22.944L21.691,27.13a2.336,2.336,0,0,1-.15-.557h-.018c-.028.128-.084.322-.169.579l-1.261,2.694H18.138l2.319-4.172ZM32.347,23.18h.833a.833.833,0,1,1,0,1.667h-.833Zm0,3.333h.833a.833.833,0,1,1,0,1.667h-.833Zm0,3.333h.833a.833.833,0,1,1,0,1.667h-.833Z" transform="translate(-15.68 -15.68)"/></g></svg>