<svg xmlns="http://www.w3.org/2000/svg" width="25" height="25" viewBox="0 0 25 25"><defs><style>.a{fill:none;}.b{fill:#494d51;}</style></defs><path class="a" d="M0,25V0H25V25Z"/><g transform="translate(4.247 4.247)"><path class="b" d="M21.657,20.907a.751.751,0,0,0-.75.75v3a.751.751,0,0,0,.75.75H36.663a.751.751,0,0,0,.75-.75v-3a.751.751,0,0,0-.75-.75Zm0,6a.751.751,0,0,0-.75.75v3a.751.751,0,0,0,.75.75H36.663a.751.751,0,0,0,.75-.75v-3a.751.751,0,0,0-.75-.75Zm0,6a.751.751,0,0,0-.75.75v3a.751.751,0,0,0,.75.75H36.663a.751.751,0,0,0,.75-.75v-3a.751.751,0,0,0-.75-.75Z" transform="translate(-20.907 -20.907)"/></g></svg>