<svg xmlns="http://www.w3.org/2000/svg" width="25" height="25" viewBox="0 0 25 25"><defs><style>.a{fill:none;}.b{fill:#0080ff;}</style></defs><path class="a" d="M0,25V0H25V25Z"/><g transform="translate(4.18 4.18)"><path class="b" d="M21.663,20.907a.757.757,0,0,0-.756.756v3.025a.757.757,0,0,0,.756.756H36.79a.757.757,0,0,0,.756-.756V21.663a.757.757,0,0,0-.756-.756Zm0,6.051a.757.757,0,0,0-.756.756v3.025a.757.757,0,0,0,.756.756H36.79a.757.757,0,0,0,.756-.756V27.714a.757.757,0,0,0-.756-.756Zm0,6.051a.757.757,0,0,0-.756.756V36.79a.757.757,0,0,0,.756.756H36.79a.757.757,0,0,0,.756-.756V33.765a.757.757,0,0,0-.756-.756Z" transform="translate(-20.907 -20.907)"/></g></svg>