<svg xmlns="http://www.w3.org/2000/svg" width="16.67" height="16.67" viewBox="0 0 16.67 16.67"><defs><style>.a{fill:#272a2d;}</style></defs><g transform="translate(347 -142)"><path class="a" d="M-331.845,142h-13.639A1.515,1.515,0,0,0-347,143.515v13.639a1.515,1.515,0,0,0,1.515,1.515h13.639a1.515,1.515,0,0,0,1.515-1.515V143.515A1.515,1.515,0,0,0-331.845,142Zm-12.881,14.4a.758.758,0,0,1-.758-.758.758.758,0,0,1,.758-.758.758.758,0,0,1,.758.758A.758.758,0,0,1-344.727,156.4Zm0-3.031a.758.758,0,0,1-.758-.758.758.758,0,0,1,.758-.758.758.758,0,0,1,.758.758A.758.758,0,0,1-344.727,153.366Zm3.031,3.031a.758.758,0,0,1-.758-.758.758.758,0,0,1,.758-.758.758.758,0,0,1,.758.758A.758.758,0,0,1-341.7,156.4Zm0-3.031a.758.758,0,0,1-.758-.758.758.758,0,0,1,.758-.758.758.758,0,0,1,.758.758A.758.758,0,0,1-341.7,153.366Zm0-3.031a.758.758,0,0,1-.758-.758.758.758,0,0,1,.758-.758.758.758,0,0,1,.758.758A.758.758,0,0,1-341.7,150.335Zm3.031,6.062a.758.758,0,0,1-.758-.758.758.758,0,0,1,.758-.758.758.758,0,0,1,.758.758A.758.758,0,0,1-338.665,156.4Zm0-3.031a.758.758,0,0,1-.758-.758.758.758,0,0,1,.758-.758.758.758,0,0,1,.758.758A.758.758,0,0,1-338.665,153.366Zm0-3.031a.758.758,0,0,1-.758-.758.758.758,0,0,1,.758-.758.758.758,0,0,1,.758.758A.758.758,0,0,1-338.665,150.335Zm3.031,6.062a.758.758,0,0,1-.758-.758.758.758,0,0,1,.758-.758.758.758,0,0,1,.758.758A.758.758,0,0,1-335.634,156.4Zm0-3.031a.758.758,0,0,1-.758-.758.758.758,0,0,1,.758-.758.758.758,0,0,1,.758.758A.758.758,0,0,1-335.634,153.366Zm-.758-3.789a.758.758,0,0,1,.758-.758.758.758,0,0,1,.758.758.758.758,0,0,1-.758.758A.758.758,0,0,1-336.392,149.577Zm3.789,3.789a.758.758,0,0,1-.758-.758.758.758,0,0,1,.758-.758.758.758,0,0,1,.758.758A.758.758,0,0,1-332.6,153.366Zm0-3.031a.758.758,0,0,1-.758-.758.758.758,0,0,1,.758-.758.758.758,0,0,1,.758.758A.758.758,0,0,1-332.6,150.335Zm.758-3.789h-13.639v-3.031h13.639Z"/></g></svg>