<svg xmlns="http://www.w3.org/2000/svg" width="16" height="15.999" viewBox="0 0 16 15.999"><g transform="translate(191 -50.001)"><path d="M-181,60.667V59.333a3.482,3.482,0,0,0,1.248-1.968c.236-.018.607-.235.716-1.09a.78.78,0,0,0-.316-.8A3.528,3.528,0,0,0-179,54c0-1.619-.635-3-2-3a2.121,2.121,0,0,0-2-1,3.666,3.666,0,0,0-4,4,3.973,3.973,0,0,0,.352,1.476.781.781,0,0,0-.316.8c.109.855.48,1.072.716,1.09A3.482,3.482,0,0,0-185,59.333v1.333c-.667,2-6,.667-6,5.333h16C-175,61.333-180.334,62.667-181,60.667Z"/></g></svg>