<svg xmlns="http://www.w3.org/2000/svg" xmlns:xlink="http://www.w3.org/1999/xlink" width="30.359" height="30.359" viewBox="0 0 30.359 30.359"><defs><style>.a{fill:url(#a);}.b{fill:#fff;}</style><linearGradient id="a" x1="1.072" y1="-0.083" x2="0.039" y2="0.954" gradientUnits="objectBoundingBox"><stop offset="0" stop-color="#0080ff"/><stop offset="1" stop-color="#14b9ae"/></linearGradient></defs><g transform="translate(0)"><rect class="a" width="30.359" height="30.359" rx="5"/><path class="b" d="M5.038,4a.679.679,0,1,0,0,1.359H17.264a.679.679,0,1,0,0-1.359ZM4.059,6.717,10.324,12.5a1.225,1.225,0,0,0,1.653,0l6.266-5.784ZM3,7.588v9.035l4.7-4.7Zm16.3,0-3.535,3.265a6.142,6.142,0,0,1,.819-.061,6.071,6.071,0,0,1,2.717.643Zm-2.717,4.562a4.755,4.755,0,1,0,4.755,4.755A4.755,4.755,0,0,0,16.584,12.151Zm-7.887.7L3.96,17.584h6.551a6.019,6.019,0,0,1,.609-3.409A2.565,2.565,0,0,1,9.4,13.5Zm7.887,1.341L19.3,16.905l-2.717,2.717V17.584H14.547a.679.679,0,0,1,0-1.358h2.038Z" transform="translate(3.457 4.136)"/></g></svg>