<svg xmlns="http://www.w3.org/2000/svg" width="25" height="25" viewBox="0 0 25 25"><defs><style>.a{fill:none;}.b{fill:#494d51;}</style></defs><g transform="translate(-229 -224)"><g transform="translate(235.1 225)"><g transform="translate(-1.1)"><path class="a" d="M0,22.105V0H13.545V22.105Z" transform="translate(0.596)"/><g transform="translate(0 2.211)"><path class="b" d="M27.607,15.68a1.473,1.473,0,0,0-1.474,1.474V32.628A1.473,1.473,0,0,0,27.607,34.1H39.4a1.473,1.473,0,0,0,1.474-1.474V21.206a.736.736,0,0,0-.216-.521l-4.79-4.79a.736.736,0,0,0-.521-.216Zm7.368,1.4,4.492,4.492H35.712a.737.737,0,0,1-.737-.737ZM29.5,24.647a3.536,3.536,0,0,1,.668.063,1.464,1.464,0,0,1,.586.246,1.338,1.338,0,0,1,.42.52,2.028,2.028,0,0,1,.161.874,2.2,2.2,0,0,1-.135.825,1.526,1.526,0,0,1-.364.553,1.392,1.392,0,0,1-.528.309,2,2,0,0,1-.615.1h-.1c-.045,0-.091,0-.14,0s-.1,0-.144-.01a.663.663,0,0,1-.1-.016v1.776h-.928V24.773a5.236,5.236,0,0,1,.583-.092,6.047,6.047,0,0,1,.632-.033Zm3.743,0a2.443,2.443,0,0,1,1.02.189,1.626,1.626,0,0,1,.656.53,2.17,2.17,0,0,1,.35.822,5.468,5.468,0,0,1,0,2.1,2.369,2.369,0,0,1-.35.862,1.8,1.8,0,0,1-.679.593,2.326,2.326,0,0,1-1.075.222c-.063,0-.151,0-.259-.009s-.22-.01-.338-.017l-.34-.023c-.108-.007-.191-.016-.25-.026V24.721c.088-.015.189-.026.3-.033l.338-.022c.115-.007.228-.012.335-.014S33.159,24.647,33.243,24.647Zm2.867.073h2.579v.855H37.039v1.341h1.517v.855H37.039v2.107h-.93Zm-6.521.751a1.6,1.6,0,0,0-.376.037v1.762a.817.817,0,0,0,.166.026c.081.007.137.01.167.01a1.075,1.075,0,0,0,.309-.043.641.641,0,0,0,.26-.151.717.717,0,0,0,.181-.3,1.426,1.426,0,0,0,.066-.475,1.19,1.19,0,0,0-.063-.413.693.693,0,0,0-.168-.269.65.65,0,0,0-.248-.144A.976.976,0,0,0,29.589,25.472Zm3.75.03q-.117,0-.239,0a1.1,1.1,0,0,0-.189.017v3.552a.373.373,0,0,0,.078.012l.118.007.117.007.078,0a.908.908,0,0,0,.545-.155,1.057,1.057,0,0,0,.335-.413,2.064,2.064,0,0,0,.168-.593,5.009,5.009,0,0,0,.049-.7,5.1,5.1,0,0,0-.042-.655,1.768,1.768,0,0,0-.154-.557.957.957,0,0,0-.322-.383A.945.945,0,0,0,33.339,25.5Z" transform="translate(-26.133 -15.68)"/></g></g></g><rect class="a" width="25" height="25" transform="translate(229 224)"/></g></svg>