<svg xmlns="http://www.w3.org/2000/svg" width="145.641" height="145.641" viewBox="0 0 145.641 145.641"><defs><style>.a{fill:#f7f9fb;}.b{fill:#cecece;}</style></defs><g transform="translate(-112 -588.359)"><circle class="a" cx="72.821" cy="72.821" r="72.821" transform="translate(112 588.359)"/><path class="b" d="M9.612,2A4.611,4.611,0,0,0,5,6.612V57.343a4.611,4.611,0,0,0,4.612,4.612h36.9a4.611,4.611,0,0,0,4.612-4.612V6.612A4.611,4.611,0,0,0,46.507,2ZM28.06,8.918A16.142,16.142,0,1,1,11.918,25.06,16.142,16.142,0,0,1,28.06,8.918ZM24.916,13.53S16.53,16.675,16.53,25.06c0,10.481,11.53,11.53,11.53,11.53l-3.18-3.1.036-4.234-3.144-3.144H18.624V24.015l5.242-3.148V18.772h2.094l1.049,1.049L29.1,18.772V13.53H27.01v3.144H24.916Zm10.26,2.509-1.874.635v1.049H32.253L31.2,18.772v2.1l2.1-1.049,3.144,1.049L35.4,22.965,33.3,21.916H31.2l-2.094,2.1v2.094L31.2,28.2h2.1l1.049,2.1L31.2,36.59s8.388-3.145,8.391-11.53C39.594,19.821,35.176,16.038,35.176,16.038ZM18.836,48.119H37.284a2.306,2.306,0,0,1,0,4.612H18.836a2.306,2.306,0,0,1,0-4.612Z" transform="translate(157.277 629.202)"/></g></svg>