<svg xmlns="http://www.w3.org/2000/svg" xmlns:xlink="http://www.w3.org/1999/xlink" width="30.359" height="30.359" viewBox="0 0 30.359 30.359"><defs><style>.a{fill:url(#a);}.b{fill:#fff;}</style><linearGradient id="a" x1="1.072" y1="-0.083" x2="0.039" y2="0.954" gradientUnits="objectBoundingBox"><stop offset="0" stop-color="#c694f9"/><stop offset="1" stop-color="#ab64f4"/></linearGradient></defs><g transform="translate(0)"><rect class="a" width="30.359" height="30.359" rx="5"/><path class="b" d="M5.752,4A.751.751,0,0,0,5,4.75v1.5H18.508V4.75a.751.751,0,0,0-.75-.75ZM3.5,7.752A1.5,1.5,0,0,0,2,9.253v6.753a1.5,1.5,0,0,0,1.5,1.5H5v3.752H18.508V17.507h1.5a1.5,1.5,0,0,0,1.5-1.5V9.253a1.5,1.5,0,0,0-1.5-1.5Zm3,4.5H17.007v7.5H6.5Z" transform="translate(3.425 3.89)"/></g></svg>