<svg xmlns="http://www.w3.org/2000/svg" width="24.293" height="24.293" viewBox="0 0 24.293 24.293"><defs><style>.a{fill:none;}.b{fill:#0080ff;}</style></defs><path class="a" d="M0,24.293V0H24.293V24.293Z"/><g transform="translate(0.798 1.619)"><path class="b" d="M5.973,10.453a.81.81,0,1,0,0,1.62H7.495a.4.4,0,0,1,.387.291L11.333,24.1a2.434,2.434,0,0,0,2.33,1.743h8.888a2.438,2.438,0,0,0,2.344-1.79L27,16.335a.81.81,0,0,0-.781-1.023H10.438l-1-3.405h0a2.029,2.029,0,0,0-1.941-1.453Zm8.1,17a1.62,1.62,0,1,0,1.62,1.62,1.62,1.62,0,0,0-1.62-1.62Zm8.1,0a1.62,1.62,0,1,0,1.62,1.62A1.62,1.62,0,0,0,22.169,27.458Z" transform="translate(-5.152 -10.453)"/></g></svg>