<svg xmlns="http://www.w3.org/2000/svg" xmlns:xlink="http://www.w3.org/1999/xlink" width="30.359" height="30.359" viewBox="0 0 30.359 30.359"><defs><style>.a{fill:url(#a);}.b{fill:none;}.c{fill:#fff;}</style><linearGradient id="a" x1="0.5" x2="0.5" y2="1" gradientUnits="objectBoundingBox"><stop offset="0" stop-color="#feb683"/><stop offset="1" stop-color="#ff8993"/></linearGradient></defs><g transform="translate(0)"><rect class="a" width="30.359" height="30.359" rx="5" transform="translate(0)"/><g transform="translate(3.572 3.572)"><path class="b" d="M0,23.037V0H23.037V23.037Z"/><g transform="translate(1.536 3.072)"><path class="c" d="M13.525,20.907a3.072,3.072,0,0,0-3.072,3.072v9.215a3.072,3.072,0,0,0,3.072,3.072h1.941a2.9,2.9,0,0,1-1.69,2.328.384.384,0,0,0,.246.727,6.226,6.226,0,0,0,5.086-3.055h8.24a3.072,3.072,0,0,0,3.072-3.072V23.978a3.072,3.072,0,0,0-3.072-3.072Zm2.3,6.143a1.536,1.536,0,1,1-1.536,1.536A1.535,1.535,0,0,1,15.829,27.05Zm4.607,0A1.536,1.536,0,1,1,18.9,28.586,1.535,1.535,0,0,1,20.436,27.05Zm4.607,0a1.536,1.536,0,1,1-1.536,1.536A1.535,1.535,0,0,1,25.044,27.05Z" transform="translate(-10.453 -20.907)"/></g></g></g></svg>