<svg xmlns="http://www.w3.org/2000/svg" xmlns:xlink="http://www.w3.org/1999/xlink" width="16" height="16" viewBox="0 0 16 16"><defs><style>.a{fill:url(#a);}.b{fill:#fff;}</style><linearGradient id="a" x1="0.971" y1="-0.096" x2="-0.022" y2="1" gradientUnits="objectBoundingBox"><stop offset="0" stop-color="#ffcb52"/><stop offset="0.486" stop-color="#ffa62d"/><stop offset="0.994" stop-color="#ff7b02"/></linearGradient></defs><g transform="translate(-826 -33)"><g transform="translate(-268)"><rect class="a" width="16" height="16" rx="4" transform="translate(1094 33)"/></g><path class="b" d="M8.2,2A4.223,4.223,0,0,0,4,6.2V8.106a1.6,1.6,0,0,0,.512,1.217.783.783,0,0,0,.329.182A3.676,3.676,0,0,0,8.2,11.922h.041a3.35,3.35,0,0,0,2.1-.762H8.2A2.978,2.978,0,0,1,5.507,9.13l-.066-.2-.2-.051a.584.584,0,0,1-.223-.131.757.757,0,0,1-.251-.643V7.724h.382c0-2.671,3.816-.763,4.961-3.435a4.749,4.749,0,0,1,1.145,3.435V8.869h.312a1.135,1.135,0,0,1-1.076.763H8.926a.571.571,0,0,0-.537-.382H8.007a.572.572,0,1,0,0,1.145h.382a.574.574,0,0,0,.1-.01.382.382,0,0,0,.091.01h1.908a1.914,1.914,0,0,0,1.884-1.619.76.76,0,0,0,.406-.671V7.724a.76.76,0,0,0-.382-.657V6.2c0-1.527-.763-3.435-2.29-3.435C10.106,2.763,9.724,2,8.2,2Z" transform="translate(826 34)"/></g></svg>