<svg xmlns="http://www.w3.org/2000/svg" xmlns:xlink="http://www.w3.org/1999/xlink" width="15.854" height="17.922" viewBox="0 0 15.854 17.922"><defs><style>.a{fill:url(#a);}</style><linearGradient id="a" x1="0.5" x2="0.5" y2="1" gradientUnits="objectBoundingBox"><stop offset="0" stop-color="#feb683"/><stop offset="1" stop-color="#ff8993"/></linearGradient></defs><path class="a" d="M11.583,2A7.628,7.628,0,0,0,4,9.583v3.447a2.885,2.885,0,0,0,.925,2.2,1.414,1.414,0,0,0,.6.328c.25.647,1.851,4.366,6.063,4.366l.069,0h.005a6.052,6.052,0,0,0,3.8-1.376H11.583c-3.676,0-4.86-3.665-4.86-3.665L6.6,14.52l-.368-.092a1.055,1.055,0,0,1-.4-.237,1.367,1.367,0,0,1-.454-1.162V12.34h.689c0-4.825,6.893-1.379,8.961-6.2,0,0,2.068,1.9,2.068,6.2v2.068h.564a2.05,2.05,0,0,1-1.943,1.379H12.9a1.031,1.031,0,0,0-.971-.689h-.689a1.034,1.034,0,1,0,0,2.068h.689a1.037,1.037,0,0,0,.18-.019.689.689,0,0,0,.164.019h3.447a3.457,3.457,0,0,0,3.4-2.924,1.372,1.372,0,0,0,.734-1.212V12.34a1.372,1.372,0,0,0-.689-1.187V9.583c0-2.757-1.379-6.2-4.136-6.2C15.029,3.379,14.34,2,11.583,2Z" transform="translate(-4 -2)"/></svg>