<svg xmlns="http://www.w3.org/2000/svg" xmlns:xlink="http://www.w3.org/1999/xlink" width="16" height="16" viewBox="0 0 16 16"><defs><style>.a{fill:url(#a);}.b{fill:#fff;}</style><linearGradient id="a" x1="0.971" y1="-0.096" x2="-0.022" y2="1" gradientUnits="objectBoundingBox"><stop offset="0" stop-color="#feb683"/><stop offset="1" stop-color="#ff8993"/></linearGradient></defs><g transform="translate(-1004 -33)"><g transform="translate(-90)"><rect class="a" width="16" height="16" rx="4" transform="translate(1094 33)"/></g><path class="b" d="M10.4,8.5a1.047,1.047,0,0,1,.7-.986V5.7a.7.7,0,0,0-.7-.7H2.7a.7.7,0,0,0-.7.7V7.514A1.044,1.044,0,0,1,2,9.486V11.3a.7.7,0,0,0,.7.7h7.7a.7.7,0,0,0,.7-.7V9.486A1.047,1.047,0,0,1,10.4,8.5Z" transform="translate(1005.45 32.5)"/></g></svg>